<?xml version="1.0" encoding="utf-8" standalone="yes"?><svg xmlns="http://www.w3.org/2000/svg" xmlns:xlink="http://www.w3.org/1999/xlink" version="1.1" width="794" height="1123"><!--Generated by Aspose.Words for .NET 21.6.0--><defs><clipPath id="clip001"><path d="M0,0.666666687 L245.733337402,0.666666687 L245.733337402,27.133333206 L0,27.133333206 Z" clip-rule="evenodd" /></clipPath><clipPath id="clip002"><path d="M0,0.666666687 L141.400009155,0.666666687 L141.400009155,27.133333206 L0,27.133333206 Z" clip-rule="evenodd" /></clipPath><clipPath id="clip003"><path d="M0.333333343,0.666666687 L188.666671753,0.666666687 L188.666671753,54.266666412 L0.333333343,54.266666412 Z" clip-rule="evenodd" /></clipPath><clipPath id="clip004"><path d="M0.333333343,0.666666687 L124.400001526,0.666666687 L124.400001526,27.133333206 L0.333333343,27.133333206 Z" clip-rule="evenodd" /></clipPath><clipPath id="clip005"><path d="M0.333333343,0.666666687 L124.400001526,0.666666687 L124.400001526,27.133333206 L0.333333343,27.133333206 Z" clip-rule="evenodd" /></clipPath><clipPath id="clip006"><path d="M0.333333343,0.666666687 L137.666671753,0.666666687 L137.666671753,27.133333206 L0.333333343,27.133333206 Z" clip-rule="evenodd" /></clipPath><clipPath id="clip007"><path d="M0.333333343,0.666666687 L188.333328247,0.666666687 L188.333328247,27.133333206 L0.333333343,27.133333206 Z" clip-rule="evenodd" /></clipPath><clipPath id="clip008"><path d="M0.333333343,0.666666687 L124.400001526,0.666666687 L124.400001526,27.133333206 L0.333333343,27.133333206 Z" clip-rule="evenodd" /></clipPath><clipPath id="clip009"><path d="M0.333333343,0.666666687 L124.400001526,0.666666687 L124.400001526,27.133333206 L0.333333343,27.133333206 Z" clip-rule="evenodd" /></clipPath><clipPath id="clip010"><path d="M0.333333343,0.666666687 L137.666671753,0.666666687 L137.666671753,27.133333206 L0.333333343,27.133333206 Z" clip-rule="evenodd" /></clipPath><clipPath id="clip011"><path d="M0.333333343,0.666666687 L188.333328247,0.666666687 L188.333328247,27.133333206 L0.333333343,27.133333206 Z" clip-rule="evenodd" /></clipPath><clipPath id="clip012"><path d="M0.333333343,0.666666687 L124.400001526,0.666666687 L124.400001526,27.133333206 L0.333333343,27.133333206 Z" clip-rule="evenodd" /></clipPath><clipPath id="clip013"><path d="M0.333333343,0.666666687 L124.400001526,0.666666687 L124.400001526,27.133333206 L0.333333343,27.133333206 Z" clip-rule="evenodd" /></clipPath><clipPath id="clip014"><path d="M0.333333343,0.666666687 L137.666671753,0.666666687 L137.666671753,27.133333206 L0.333333343,27.133333206 Z" clip-rule="evenodd" /></clipPath><clipPath id="clip015"><path d="M0.333333343,0.666666687 L188.333328247,0.666666687 L188.333328247,27.133333206 L0.333333343,27.133333206 Z" clip-rule="evenodd" /></clipPath><clipPath id="clip016"><path d="M0.333333343,0.666666687 L124.400001526,0.666666687 L124.400001526,27.133333206 L0.333333343,27.133333206 Z" clip-rule="evenodd" /></clipPath><clipPath id="clip017"><path d="M0.333333343,0.666666687 L124.400001526,0.666666687 L124.400001526,27.133333206 L0.333333343,27.133333206 Z" clip-rule="evenodd" /></clipPath><clipPath id="clip018"><path d="M0.333333343,0.666666687 L137.666671753,0.666666687 L137.666671753,27.133333206 L0.333333343,27.133333206 Z" clip-rule="evenodd" /></clipPath><clipPath id="clip019"><path d="M0.333333343,0.666666687 L188.333328247,0.666666687 L188.333328247,27.133333206 L0.333333343,27.133333206 Z" clip-rule="evenodd" /></clipPath><clipPath id="clip020"><path d="M0.333333343,0.666666687 L124.400001526,0.666666687 L124.400001526,27.133333206 L0.333333343,27.133333206 Z" clip-rule="evenodd" /></clipPath><clipPath id="clip021"><path d="M0.333333343,0.666666687 L124.400001526,0.666666687 L124.400001526,27.133333206 L0.333333343,27.133333206 Z" clip-rule="evenodd" /></clipPath><clipPath id="clip022"><path d="M0.333333343,0.666666687 L137.666671753,0.666666687 L137.666671753,27.133333206 L0.333333343,27.133333206 Z" clip-rule="evenodd" /></clipPath><clipPath id="clip023"><path d="M0.333333343,0.666666687 L188.333328247,0.666666687 L188.333328247,27.133333206 L0.333333343,27.133333206 Z" clip-rule="evenodd" /></clipPath><clipPath id="clip024"><path d="M0.333333343,0.666666687 L124.400001526,0.666666687 L124.400001526,27.133333206 L0.333333343,27.133333206 Z" clip-rule="evenodd" /></clipPath><clipPath id="clip025"><path d="M0.333333343,0.666666687 L124.400001526,0.666666687 L124.400001526,27.133333206 L0.333333343,27.133333206 Z" clip-rule="evenodd" /></clipPath><clipPath id="clip026"><path d="M0.333333343,0.666666687 L137.666671753,0.666666687 L137.666671753,27.133333206 L0.333333343,27.133333206 Z" clip-rule="evenodd" /></clipPath><clipPath id="clip027"><path d="M0.333333343,0.666666687 L188.333328247,0.666666687 L188.333328247,27.133333206 L0.333333343,27.133333206 Z" clip-rule="evenodd" /></clipPath><clipPath id="clip028"><path d="M0.333333343,0.666666687 L124.400001526,0.666666687 L124.400001526,27.133333206 L0.333333343,27.133333206 Z" clip-rule="evenodd" /></clipPath><clipPath id="clip029"><path d="M0.333333343,0.666666687 L124.400001526,0.666666687 L124.400001526,27.133333206 L0.333333343,27.133333206 Z" clip-rule="evenodd" /></clipPath><clipPath id="clip030"><path d="M0.333333343,0.666666687 L137.666671753,0.666666687 L137.666671753,27.133333206 L0.333333343,27.133333206 Z" clip-rule="evenodd" /></clipPath><clipPath id="clip031"><path d="M0.333333343,0.666666687 L188.333328247,0.666666687 L188.333328247,27.133333206 L0.333333343,27.133333206 Z" clip-rule="evenodd" /></clipPath><clipPath id="clip032"><path d="M0.333333343,0.666666687 L124.400001526,0.666666687 L124.400001526,27.133333206 L0.333333343,27.133333206 Z" clip-rule="evenodd" /></clipPath><clipPath id="clip033"><path d="M0.333333343,0.666666687 L124.400001526,0.666666687 L124.400001526,27.133333206 L0.333333343,27.133333206 Z" clip-rule="evenodd" /></clipPath><clipPath id="clip034"><path d="M0.333333343,0.666666687 L137.666671753,0.666666687 L137.666671753,27.133333206 L0.333333343,27.133333206 Z" clip-rule="evenodd" /></clipPath><clipPath id="clip035"><path d="M0.333333343,0.666666687 L188.333328247,0.666666687 L188.333328247,27.133333206 L0.333333343,27.133333206 Z" clip-rule="evenodd" /></clipPath><clipPath id="clip036"><path d="M0.333333343,0.666666687 L124.400001526,0.666666687 L124.400001526,27.133333206 L0.333333343,27.133333206 Z" clip-rule="evenodd" /></clipPath><clipPath id="clip037"><path d="M0.333333343,0.666666687 L124.400001526,0.666666687 L124.400001526,27.133333206 L0.333333343,27.133333206 Z" clip-rule="evenodd" /></clipPath><clipPath id="clip038"><path d="M0.333333343,0.666666687 L137.666671753,0.666666687 L137.666671753,27.133333206 L0.333333343,27.133333206 Z" clip-rule="evenodd" /></clipPath><clipPath id="clip039"><path d="M0.333333343,0.666666687 L188.333328247,0.666666687 L188.333328247,27.133333206 L0.333333343,27.133333206 Z" clip-rule="evenodd" /></clipPath><clipPath id="clip040"><path d="M0.333333343,0.666666687 L124.400001526,0.666666687 L124.400001526,27.133333206 L0.333333343,27.133333206 Z" clip-rule="evenodd" /></clipPath><clipPath id="clip041"><path d="M0.333333343,0.666666687 L124.400001526,0.666666687 L124.400001526,27.133333206 L0.333333343,27.133333206 Z" clip-rule="evenodd" /></clipPath><clipPath id="clip042"><path d="M0.333333343,0.666666687 L137.666671753,0.666666687 L137.666671753,27.133333206 L0.333333343,27.133333206 Z" clip-rule="evenodd" /></clipPath><clipPath id="clip043"><path d="M0.333333343,0.666666687 L188.333328247,0.666666687 L188.333328247,27.133333206 L0.333333343,27.133333206 Z" clip-rule="evenodd" /></clipPath><clipPath id="clip044"><path d="M0.333333343,0.666666687 L124.400001526,0.666666687 L124.400001526,27.133333206 L0.333333343,27.133333206 Z" clip-rule="evenodd" /></clipPath><clipPath id="clip045"><path d="M0.333333343,0.666666687 L124.400001526,0.666666687 L124.400001526,27.133333206 L0.333333343,27.133333206 Z" clip-rule="evenodd" /></clipPath><clipPath id="clip046"><path d="M0.333333343,0.666666687 L137.666671753,0.666666687 L137.666671753,27.133333206 L0.333333343,27.133333206 Z" clip-rule="evenodd" /></clipPath><clipPath id="clip047"><path d="M0.333333343,0.666666687 L188.333328247,0.666666687 L188.333328247,27.133333206 L0.333333343,27.133333206 Z" clip-rule="evenodd" /></clipPath><clipPath id="clip048"><path d="M0.333333343,0.666666687 L124.400001526,0.666666687 L124.400001526,27.133333206 L0.333333343,27.133333206 Z" clip-rule="evenodd" /></clipPath><clipPath id="clip049"><path d="M0.333333343,0.666666687 L124.400001526,0.666666687 L124.400001526,27.133333206 L0.333333343,27.133333206 Z" clip-rule="evenodd" /></clipPath><clipPath id="clip050"><path d="M0.333333343,0.666666687 L137.666671753,0.666666687 L137.666671753,27.133333206 L0.333333343,27.133333206 Z" clip-rule="evenodd" /></clipPath><clipPath id="clip051"><path d="M0.333333343,0.666666687 L188.333328247,0.666666687 L188.333328247,27.133333206 L0.333333343,27.133333206 Z" clip-rule="evenodd" /></clipPath><clipPath id="clip052"><path d="M0.333333343,0.666666687 L124.400001526,0.666666687 L124.400001526,27.133333206 L0.333333343,27.133333206 Z" clip-rule="evenodd" /></clipPath><clipPath id="clip053"><path d="M0.333333343,0.666666687 L124.400001526,0.666666687 L124.400001526,27.133333206 L0.333333343,27.133333206 Z" clip-rule="evenodd" /></clipPath><clipPath id="clip054"><path d="M0.333333343,0.666666687 L137.666671753,0.666666687 L137.666671753,27.133333206 L0.333333343,27.133333206 Z" clip-rule="evenodd" /></clipPath></defs><g transform="translate(0.133341476,0)"><rect x="0" y="0" width="793.733337402" height="1122.533325195" style="fill: #ffffff; stroke: #000000; stroke-width: 1.333333373" /><g transform="translate(120,96)"><g><g transform="translate(0.333333343,0)"><g><g /><path d="M188.666671753,0.666666687 L434.399993896,0.666666687 L434.399993896,27.133333206 L188.666671753,27.133333206 Z" fill="#5b9bd5" fill-rule="evenodd" /><g transform="translate(188.666671753,0)" clip-path="url(#clip001)"><g transform="translate(7.200000286,0.666666687)"><text><tspan x="84.807998657" y="18.572000504" font-family="Cambria" font-weight="bold" font-style="normal" font-size="14.666666985" fill="#000000">Standard</tspan></text></g></g><path d="M434.399993896,0.666666687 L575.799987793,0.666666687 L575.799987793,27.133333206 L434.399993896,27.133333206 Z" fill="#5b9bd5" fill-rule="evenodd" /><g transform="translate(434.399993896,0)" clip-path="url(#clip002)"><g transform="translate(7.200000286,0.666666687)"><text><tspan x="32.149333954" y="18.572000504" font-family="Cambria" font-weight="bold" font-style="normal" font-size="14.666666985" fill="#000000">Premium</tspan></text></g></g></g><g transform="translate(0,27.133333206)"><g /><path d="M0.333333343,-26.466667175 L188.666671753,-26.466667175 L188.666671753,27.133333206 L0.333333343,27.133333206 Z" fill="#5b9bd5" fill-rule="evenodd" /><g transform="translate(0,-27.133333206)" clip-path="url(#clip003)"><g transform="translate(7.200000286,0.666666687)"><text><tspan x="46.667999268" y="32.13866806" font-family="Cambria" font-weight="bold" font-style="normal" font-size="14.666666985" fill="#000000">Word</tspan><tspan x="84.645332336" y="32.13866806" font-family="Cambria" font-weight="bold" font-style="normal" font-size="14.666666985" fill="#000000"> </tspan><tspan x="87.874664307" y="32.13866806" font-family="Cambria" font-weight="bold" font-style="normal" font-size="14.666666985" fill="#000000">Count</tspan></text></g></g><path d="M189,0.666666687 L313.066680908,0.666666687 L313.066680908,27.133333206 L189,27.133333206 Z" fill="#bdd6ee" fill-rule="evenodd" /><g transform="translate(188.666671753,0)" clip-path="url(#clip004)"><g transform="translate(7.200000286,0.666666687)"><text><tspan x="34.995998383" y="18.572000504" font-family="Cambria" font-weight="normal" font-style="normal" font-size="14.666666985" fill="#000000">3</tspan><tspan x="43.117336273" y="18.572000504" font-family="Cambria" font-weight="normal" font-style="normal" font-size="14.666666985" fill="#000000"> </tspan><tspan x="46.346664429" y="18.572000504" font-family="Cambria" font-weight="normal" font-style="normal" font-size="14.666666985" fill="#000000">days</tspan></text></g></g><path d="M313.733337402,0.666666687 L437.800018311,0.666666687 L437.800018311,27.133333206 L313.733337402,27.133333206 Z" fill="#bdd6ee" fill-rule="evenodd" /><g transform="translate(313.399993896,0)" clip-path="url(#clip005)"><g transform="translate(7.200000286,0.666666687)"><text><tspan x="34.995998383" y="18.572000504" font-family="Cambria" font-weight="normal" font-style="normal" font-size="14.666666985" fill="#000000">7</tspan><tspan x="43.117336273" y="18.572000504" font-family="Cambria" font-weight="normal" font-style="normal" font-size="14.666666985" fill="#000000"> </tspan><tspan x="46.346664429" y="18.572000504" font-family="Cambria" font-weight="normal" font-style="normal" font-size="14.666666985" fill="#000000">days</tspan></text></g></g><path d="M438.466674805,0.666666687 L575.799987793,0.666666687 L575.799987793,27.133333206 L438.466674805,27.133333206 Z" fill="#bdd6ee" fill-rule="evenodd" /><g transform="translate(438.133331299,0)" clip-path="url(#clip006)"><g transform="translate(7.200000286,0.666666687)"><text><tspan x="41.629333496" y="18.572000504" font-family="Cambria" font-weight="normal" font-style="normal" font-size="14.666666985" fill="#000000">7</tspan><tspan x="49.750667572" y="18.572000504" font-family="Cambria" font-weight="normal" font-style="normal" font-size="14.666666985" fill="#000000"> </tspan><tspan x="52.979999542" y="18.572000504" font-family="Cambria" font-weight="normal" font-style="normal" font-size="14.666666985" fill="#000000">days</tspan></text></g></g></g><g transform="translate(0,54.266666412)"><path d="M0.333333343,0.666666687 L188.333328247,0.666666687 L188.333328247,27.133333206 L0.333333343,27.133333206 Z" fill="#5b9bd5" fill-rule="evenodd" /><g clip-path="url(#clip007)"><g transform="translate(7.200000286,0.666666687)"><text><tspan x="0" y="18.572000504" font-family="Cambria" font-weight="bold" font-style="normal" font-size="14.666666985" fill="#000000">Up</tspan><tspan x="18.677333832" y="18.572000504" font-family="Cambria" font-weight="bold" font-style="normal" font-size="14.666666985" fill="#000000"> </tspan><tspan x="21.906667709" y="18.572000504" font-family="Cambria" font-weight="bold" font-style="normal" font-size="14.666666985" fill="#000000">to</tspan><tspan x="35.613330841" y="18.572000504" font-family="Cambria" font-weight="bold" font-style="normal" font-size="14.666666985" fill="#000000"> </tspan><tspan x="38.842666626" y="18.572000504" font-family="Cambria" font-weight="bold" font-style="normal" font-size="14.666666985" fill="#000000">500</tspan></text></g></g><path d="M189,0.666666687 L313.066680908,0.666666687 L313.066680908,27.133333206 L189,27.133333206 Z" fill="#deeaf6" fill-rule="evenodd" /><g transform="translate(188.666671753,0)" clip-path="url(#clip008)"><g transform="translate(7.200000286,0.666666687)"><text><tspan x="39.274665833" y="18.572000504" font-family="Cambria" font-weight="normal" font-style="normal" font-size="14.666666985" fill="#000000">$159</tspan></text></g></g><path d="M313.733337402,0.666666687 L437.800018311,0.666666687 L437.800018311,27.133333206 L313.733337402,27.133333206 Z" fill="#deeaf6" fill-rule="evenodd" /><g transform="translate(313.399993896,0)" clip-path="url(#clip009)"><g transform="translate(7.200000286,0.666666687)"><text><tspan x="39.274665833" y="18.572000504" font-family="Cambria" font-weight="normal" font-style="normal" font-size="14.666666985" fill="#000000">$109</tspan></text></g></g><path d="M438.466674805,0.666666687 L575.799987793,0.666666687 L575.799987793,27.133333206 L438.466674805,27.133333206 Z" fill="#deeaf6" fill-rule="evenodd" /><g transform="translate(438.133331299,0)" clip-path="url(#clip010)"><g transform="translate(7.200000286,0.666666687)"><text><tspan x="45.908000946" y="18.572000504" font-family="Cambria" font-weight="normal" font-style="normal" font-size="14.666666985" fill="#000000">$209</tspan></text></g></g></g><g transform="translate(0,81.400001526)"><path d="M0.333333343,0.666666687 L188.333328247,0.666666687 L188.333328247,27.133333206 L0.333333343,27.133333206 Z" fill="#5b9bd5" fill-rule="evenodd" /><g clip-path="url(#clip011)"><g transform="translate(7.200000286,0.666666687)"><text><tspan x="0" y="18.572000504" font-family="Cambria" font-weight="bold" font-style="normal" font-size="14.666666985" fill="#000000">501-</tspan><tspan x="31.001333237" y="18.572000504" font-family="Cambria" font-weight="bold" font-style="normal" font-size="14.666666985" fill="#000000"> </tspan><tspan x="34.230667114" y="18.572000504" font-family="Cambria" font-weight="bold" font-style="normal" font-size="14.666666985" fill="#000000">1500</tspan></text></g></g><path d="M189,0.666666687 L313.066680908,0.666666687 L313.066680908,27.133333206 L189,27.133333206 Z" fill="#bdd6ee" fill-rule="evenodd" /><g transform="translate(188.666671753,0)" clip-path="url(#clip012)"><g transform="translate(7.200000286,0.666666687)"><text><tspan x="39.274665833" y="18.572000504" font-family="Cambria" font-weight="normal" font-style="normal" font-size="14.666666985" fill="#000000">$259</tspan></text></g></g><path d="M313.733337402,0.666666687 L437.800018311,0.666666687 L437.800018311,27.133333206 L313.733337402,27.133333206 Z" fill="#bdd6ee" fill-rule="evenodd" /><g transform="translate(313.399993896,0)" clip-path="url(#clip013)"><g transform="translate(7.200000286,0.666666687)"><text><tspan x="39.274665833" y="18.572000504" font-family="Cambria" font-weight="normal" font-style="normal" font-size="14.666666985" fill="#000000">$209</tspan></text></g></g><path d="M438.466674805,0.666666687 L575.799987793,0.666666687 L575.799987793,27.133333206 L438.466674805,27.133333206 Z" fill="#bdd6ee" fill-rule="evenodd" /><g transform="translate(438.133331299,0)" clip-path="url(#clip014)"><g transform="translate(7.200000286,0.666666687)"><text><tspan x="45.908000946" y="18.572000504" font-family="Cambria" font-weight="normal" font-style="normal" font-size="14.666666985" fill="#000000">$309</tspan></text></g></g></g><g transform="translate(0,108.533332825)"><path d="M0.333333343,0.666666687 L188.333328247,0.666666687 L188.333328247,27.133333206 L0.333333343,27.133333206 Z" fill="#5b9bd5" fill-rule="evenodd" /><g clip-path="url(#clip015)"><g transform="translate(7.200000286,0.666666687)"><text><tspan x="0" y="18.572000504" font-family="Cambria" font-weight="bold" font-style="normal" font-size="14.666666985" fill="#000000">1501</tspan><tspan x="34.748001099" y="18.572000504" font-family="Cambria" font-weight="bold" font-style="normal" font-size="14.666666985" fill="#000000"> </tspan><tspan x="37.977333069" y="18.572000504" font-family="Cambria" font-weight="bold" font-style="normal" font-size="14.666666985" fill="#000000">-3000</tspan></text></g></g><path d="M189,0.666666687 L313.066680908,0.666666687 L313.066680908,27.133333206 L189,27.133333206 Z" fill="#deeaf6" fill-rule="evenodd" /><g transform="translate(188.666671753,0)" clip-path="url(#clip016)"><g transform="translate(7.200000286,0.666666687)"><text><tspan x="39.274665833" y="18.572000504" font-family="Cambria" font-weight="normal" font-style="normal" font-size="14.666666985" fill="#000000">$369</tspan></text></g></g><path d="M313.733337402,0.666666687 L437.800018311,0.666666687 L437.800018311,27.133333206 L313.733337402,27.133333206 Z" fill="#deeaf6" fill-rule="evenodd" /><g transform="translate(313.399993896,0)" clip-path="url(#clip017)"><g transform="translate(7.200000286,0.666666687)"><text><tspan x="39.274665833" y="18.572000504" font-family="Cambria" font-weight="normal" font-style="normal" font-size="14.666666985" fill="#000000">$299</tspan></text></g></g><path d="M438.466674805,0.666666687 L575.799987793,0.666666687 L575.799987793,27.133333206 L438.466674805,27.133333206 Z" fill="#deeaf6" fill-rule="evenodd" /><g transform="translate(438.133331299,0)" clip-path="url(#clip018)"><g transform="translate(7.200000286,0.666666687)"><text><tspan x="45.908000946" y="18.572000504" font-family="Cambria" font-weight="normal" font-style="normal" font-size="14.666666985" fill="#000000">$429</tspan></text></g></g></g><g transform="translate(0,135.666671753)"><path d="M0.333333343,0.666666687 L188.333328247,0.666666687 L188.333328247,27.133333206 L0.333333343,27.133333206 Z" fill="#5b9bd5" fill-rule="evenodd" /><g clip-path="url(#clip019)"><g transform="translate(7.200000286,0.666666687)"><text><tspan x="0" y="18.572000504" font-family="Cambria" font-weight="bold" font-style="normal" font-size="14.666666985" fill="#000000">3001</tspan><tspan x="34.748001099" y="18.572000504" font-family="Cambria" font-weight="bold" font-style="normal" font-size="14.666666985" fill="#000000"> </tspan><tspan x="37.977333069" y="18.572000504" font-family="Cambria" font-weight="bold" font-style="normal" font-size="14.666666985" fill="#000000">-4000</tspan></text></g></g><path d="M189,0.666666687 L313.066680908,0.666666687 L313.066680908,27.133333206 L189,27.133333206 Z" fill="#bdd6ee" fill-rule="evenodd" /><g transform="translate(188.666671753,0)" clip-path="url(#clip020)"><g transform="translate(7.200000286,0.666666687)"><text><tspan x="39.274665833" y="18.572000504" font-family="Cambria" font-weight="normal" font-style="normal" font-size="14.666666985" fill="#000000">$409</tspan></text></g></g><path d="M313.733337402,0.666666687 L437.800018311,0.666666687 L437.800018311,27.133333206 L313.733337402,27.133333206 Z" fill="#bdd6ee" fill-rule="evenodd" /><g transform="translate(313.399993896,0)" clip-path="url(#clip021)"><g transform="translate(7.200000286,0.666666687)"><text><tspan x="39.274665833" y="18.572000504" font-family="Cambria" font-weight="normal" font-style="normal" font-size="14.666666985" fill="#000000">$339</tspan></text></g></g><path d="M438.466674805,0.666666687 L575.799987793,0.666666687 L575.799987793,27.133333206 L438.466674805,27.133333206 Z" fill="#bdd6ee" fill-rule="evenodd" /><g transform="translate(438.133331299,0)" clip-path="url(#clip022)"><g transform="translate(7.200000286,0.666666687)"><text><tspan x="45.908000946" y="18.572000504" font-family="Cambria" font-weight="normal" font-style="normal" font-size="14.666666985" fill="#000000">$479</tspan></text></g></g></g><g transform="translate(0,162.800003052)"><path d="M0.333333343,0.666666687 L188.333328247,0.666666687 L188.333328247,27.133333206 L0.333333343,27.133333206 Z" fill="#5b9bd5" fill-rule="evenodd" /><g clip-path="url(#clip023)"><g transform="translate(7.200000286,0.666666687)"><text><tspan x="0" y="18.572000504" font-family="Cambria" font-weight="bold" font-style="normal" font-size="14.666666985" fill="#000000">4001</tspan><tspan x="34.748001099" y="18.572000504" font-family="Cambria" font-weight="bold" font-style="normal" font-size="14.666666985" fill="#000000"> </tspan><tspan x="37.977333069" y="18.572000504" font-family="Cambria" font-weight="bold" font-style="normal" font-size="14.666666985" fill="#000000">-5000</tspan></text></g></g><path d="M189,0.666666687 L313.066680908,0.666666687 L313.066680908,27.133333206 L189,27.133333206 Z" fill="#deeaf6" fill-rule="evenodd" /><g transform="translate(188.666671753,0)" clip-path="url(#clip024)"><g transform="translate(7.200000286,0.666666687)"><text><tspan x="39.274665833" y="18.572000504" font-family="Cambria" font-weight="normal" font-style="normal" font-size="14.666666985" fill="#000000">$449</tspan></text></g></g><path d="M313.733337402,0.666666687 L437.800018311,0.666666687 L437.800018311,27.133333206 L313.733337402,27.133333206 Z" fill="#deeaf6" fill-rule="evenodd" /><g transform="translate(313.399993896,0)" clip-path="url(#clip025)"><g transform="translate(7.200000286,0.666666687)"><text><tspan x="39.274665833" y="18.572000504" font-family="Cambria" font-weight="normal" font-style="normal" font-size="14.666666985" fill="#000000">$379</tspan></text></g></g><path d="M438.466674805,0.666666687 L575.799987793,0.666666687 L575.799987793,27.133333206 L438.466674805,27.133333206 Z" fill="#deeaf6" fill-rule="evenodd" /><g transform="translate(438.133331299,0)" clip-path="url(#clip026)"><g transform="translate(7.200000286,0.666666687)"><text><tspan x="45.908000946" y="18.572000504" font-family="Cambria" font-weight="normal" font-style="normal" font-size="14.666666985" fill="#000000">$529</tspan></text></g></g></g><g transform="translate(0,189.933334351)"><path d="M0.333333343,0.666666687 L188.333328247,0.666666687 L188.333328247,27.133333206 L0.333333343,27.133333206 Z" fill="#5b9bd5" fill-rule="evenodd" /><g clip-path="url(#clip027)"><g transform="translate(7.200000286,0.666666687)"><text><tspan x="0" y="18.572000504" font-family="Cambria" font-weight="bold" font-style="normal" font-size="14.666666985" fill="#000000">5001</tspan><tspan x="34.748001099" y="18.572000504" font-family="Cambria" font-weight="bold" font-style="normal" font-size="14.666666985" fill="#000000"> </tspan><tspan x="37.977333069" y="18.572000504" font-family="Cambria" font-weight="bold" font-style="normal" font-size="14.666666985" fill="#000000">-</tspan><tspan x="42.91866684" y="18.572000504" font-family="Cambria" font-weight="bold" font-style="normal" font-size="14.666666985" fill="#000000"> </tspan><tspan x="46.14799881" y="18.572000504" font-family="Cambria" font-weight="bold" font-style="normal" font-size="14.666666985" fill="#000000">6000</tspan></text></g></g><path d="M189,0.666666687 L313.066680908,0.666666687 L313.066680908,27.133333206 L189,27.133333206 Z" fill="#bdd6ee" fill-rule="evenodd" /><g transform="translate(188.666671753,0)" clip-path="url(#clip028)"><g transform="translate(7.200000286,0.666666687)"><text><tspan x="39.274665833" y="18.572000504" font-family="Cambria" font-weight="normal" font-style="normal" font-size="14.666666985" fill="#000000">$489</tspan></text></g></g><path d="M313.733337402,0.666666687 L437.800018311,0.666666687 L437.800018311,27.133333206 L313.733337402,27.133333206 Z" fill="#bdd6ee" fill-rule="evenodd" /><g transform="translate(313.399993896,0)" clip-path="url(#clip029)"><g transform="translate(7.200000286,0.666666687)"><text><tspan x="39.274665833" y="18.572000504" font-family="Cambria" font-weight="normal" font-style="normal" font-size="14.666666985" fill="#000000">$419</tspan></text></g></g><path d="M438.466674805,0.666666687 L575.799987793,0.666666687 L575.799987793,27.133333206 L438.466674805,27.133333206 Z" fill="#bdd6ee" fill-rule="evenodd" /><g transform="translate(438.133331299,0)" clip-path="url(#clip030)"><g transform="translate(7.200000286,0.666666687)"><text><tspan x="45.908000946" y="18.572000504" font-family="Cambria" font-weight="normal" font-style="normal" font-size="14.666666985" fill="#000000">$579</tspan></text></g></g></g><g transform="translate(0,217.066665649)"><path d="M0.333333343,0.666666687 L188.333328247,0.666666687 L188.333328247,27.133333206 L0.333333343,27.133333206 Z" fill="#5b9bd5" fill-rule="evenodd" /><g clip-path="url(#clip031)"><g transform="translate(7.200000286,0.666666687)"><text><tspan x="0" y="18.572000504" font-family="Cambria" font-weight="bold" font-style="normal" font-size="14.666666985" fill="#000000">6001</tspan><tspan x="34.748001099" y="18.572000504" font-family="Cambria" font-weight="bold" font-style="normal" font-size="14.666666985" fill="#000000"> </tspan><tspan x="37.977333069" y="18.572000504" font-family="Cambria" font-weight="bold" font-style="normal" font-size="14.666666985" fill="#000000">-8000</tspan></text></g></g><path d="M189,0.666666687 L313.066680908,0.666666687 L313.066680908,27.133333206 L189,27.133333206 Z" fill="#deeaf6" fill-rule="evenodd" /><g transform="translate(188.666671753,0)" clip-path="url(#clip032)"><g transform="translate(7.200000286,0.666666687)"><text><tspan x="39.274665833" y="18.572000504" font-family="Cambria" font-weight="normal" font-style="normal" font-size="14.666666985" fill="#000000">$559</tspan></text></g></g><path d="M313.733337402,0.666666687 L437.800018311,0.666666687 L437.800018311,27.133333206 L313.733337402,27.133333206 Z" fill="#deeaf6" fill-rule="evenodd" /><g transform="translate(313.399993896,0)" clip-path="url(#clip033)"><g transform="translate(7.200000286,0.666666687)"><text><tspan x="39.274665833" y="18.572000504" font-family="Cambria" font-weight="normal" font-style="normal" font-size="14.666666985" fill="#000000">$479</tspan></text></g></g><path d="M438.466674805,0.666666687 L575.799987793,0.666666687 L575.799987793,27.133333206 L438.466674805,27.133333206 Z" fill="#deeaf6" fill-rule="evenodd" /><g transform="translate(438.133331299,0)" clip-path="url(#clip034)"><g transform="translate(7.200000286,0.666666687)"><text><tspan x="45.908000946" y="18.572000504" font-family="Cambria" font-weight="normal" font-style="normal" font-size="14.666666985" fill="#000000">$649</tspan></text></g></g></g><g transform="translate(0,244.199996948)"><path d="M0.333333343,0.666666687 L188.333328247,0.666666687 L188.333328247,27.133333206 L0.333333343,27.133333206 Z" fill="#5b9bd5" fill-rule="evenodd" /><g clip-path="url(#clip035)"><g transform="translate(7.200000286,0.666666687)"><text><tspan x="0" y="18.572000504" font-family="Cambria" font-weight="bold" font-style="normal" font-size="14.666666985" fill="#000000">8001-</tspan><tspan x="39.689334869" y="18.572000504" font-family="Cambria" font-weight="bold" font-style="normal" font-size="14.666666985" fill="#000000"> </tspan><tspan x="42.91866684" y="18.572000504" font-family="Cambria" font-weight="bold" font-style="normal" font-size="14.666666985" fill="#000000">10000</tspan></text></g></g><path d="M189,0.666666687 L313.066680908,0.666666687 L313.066680908,27.133333206 L189,27.133333206 Z" fill="#bdd6ee" fill-rule="evenodd" /><g transform="translate(188.666671753,0)" clip-path="url(#clip036)"><g transform="translate(7.200000286,0.666666687)"><text><tspan x="39.274665833" y="18.572000504" font-family="Cambria" font-weight="normal" font-style="normal" font-size="14.666666985" fill="#000000">$639</tspan></text></g></g><path d="M313.733337402,0.666666687 L437.800018311,0.666666687 L437.800018311,27.133333206 L313.733337402,27.133333206 Z" fill="#bdd6ee" fill-rule="evenodd" /><g transform="translate(313.399993896,0)" clip-path="url(#clip037)"><g transform="translate(7.200000286,0.666666687)"><text><tspan x="39.274665833" y="18.572000504" font-family="Cambria" font-weight="normal" font-style="normal" font-size="14.666666985" fill="#000000">$539</tspan></text></g></g><path d="M438.466674805,0.666666687 L575.799987793,0.666666687 L575.799987793,27.133333206 L438.466674805,27.133333206 Z" fill="#bdd6ee" fill-rule="evenodd" /><g transform="translate(438.133331299,0)" clip-path="url(#clip038)"><g transform="translate(7.200000286,0.666666687)"><text><tspan x="45.908000946" y="18.572000504" font-family="Cambria" font-weight="normal" font-style="normal" font-size="14.666666985" fill="#000000">$739</tspan></text></g></g></g><g transform="translate(0,271.333343506)"><path d="M0.333333343,0.666666687 L188.333328247,0.666666687 L188.333328247,27.133333206 L0.333333343,27.133333206 Z" fill="#5b9bd5" fill-rule="evenodd" /><g clip-path="url(#clip039)"><g transform="translate(7.200000286,0.666666687)"><text><tspan x="0" y="18.572000504" font-family="Cambria" font-weight="bold" font-style="normal" font-size="14.666666985" fill="#000000">&gt;10000</tspan></text></g></g><path d="M189,0.666666687 L313.066680908,0.666666687 L313.066680908,27.133333206 L189,27.133333206 Z" fill="#deeaf6" fill-rule="evenodd" /><g transform="translate(188.666671753,0)" clip-path="url(#clip040)"><g transform="translate(7.200000286,0.666666687)"><text><tspan x="17.50399971" y="18.572000504" font-family="Cambria" font-weight="normal" font-style="normal" font-size="14.666666985" fill="#000000">$0.07/word</tspan></text></g></g><path d="M313.733337402,0.666666687 L437.800018311,0.666666687 L437.800018311,27.133333206 L313.733337402,27.133333206 Z" fill="#deeaf6" fill-rule="evenodd" /><g transform="translate(313.399993896,0)" clip-path="url(#clip041)"><g transform="translate(7.200000286,0.666666687)"><text><tspan x="17.50399971" y="18.572000504" font-family="Cambria" font-weight="normal" font-style="normal" font-size="14.666666985" fill="#000000">$0.06/word</tspan></text></g></g><path d="M438.466674805,0.666666687 L575.799987793,0.666666687 L575.799987793,27.133333206 L438.466674805,27.133333206 Z" fill="#deeaf6" fill-rule="evenodd" /><g transform="translate(438.133331299,0)" clip-path="url(#clip042)"><g transform="translate(7.200000286,0.666666687)"><text><tspan x="24.137334824" y="18.572000504" font-family="Cambria" font-weight="normal" font-style="normal" font-size="14.666666985" fill="#000000">$0.08/word</tspan></text></g></g></g><g transform="translate(0,298.466674805)"><path d="M0.333333343,0.666666687 L188.333328247,0.666666687 L188.333328247,27.133333206 L0.333333343,27.133333206 Z" fill="#5b9bd5" fill-rule="evenodd" /><g clip-path="url(#clip043)"><g transform="translate(7.200000286,0.666666687)"><text><tspan x="0" y="18.572000504" font-family="Cambria" font-weight="bold" font-style="normal" font-size="14.666666985" fill="#000000">Journal</tspan><tspan x="50.094665527" y="18.572000504" font-family="Cambria" font-weight="bold" font-style="normal" font-size="14.666666985" fill="#000000"> </tspan><tspan x="53.324001312" y="18.572000504" font-family="Cambria" font-weight="bold" font-style="normal" font-size="14.666666985" fill="#000000">recommendation</tspan></text></g></g><path d="M189,0.666666687 L313.066680908,0.666666687 L313.066680908,27.133333206 L189,27.133333206 Z" fill="#bdd6ee" fill-rule="evenodd" /><g transform="translate(188.666671753,0)" clip-path="url(#clip044)"><g transform="translate(7.200000286,0.666666687)"><text><tspan x="43.335998535" y="18.572000504" font-family="Cambria" font-weight="normal" font-style="normal" font-size="14.666666985" fill="#000000">$50</tspan></text></g></g><path d="M313.733337402,0.666666687 L437.800018311,0.666666687 L437.800018311,27.133333206 L313.733337402,27.133333206 Z" fill="#bdd6ee" fill-rule="evenodd" /><g transform="translate(313.399993896,0)" clip-path="url(#clip045)"><g transform="translate(7.200000286,0.666666687)"><text><tspan x="43.335998535" y="18.572000504" font-family="Cambria" font-weight="normal" font-style="normal" font-size="14.666666985" fill="#000000">$50</tspan></text></g></g><path d="M438.466674805,0.666666687 L575.799987793,0.666666687 L575.799987793,27.133333206 L438.466674805,27.133333206 Z" fill="#bdd6ee" fill-rule="evenodd" /><g transform="translate(438.133331299,0)" clip-path="url(#clip046)"><g transform="translate(7.200000286,0.666666687)"><text><tspan x="34.342666626" y="18.572000504" font-family="Cambria" font-weight="normal" font-style="normal" font-size="14.666666985" fill="#000000">Included</tspan></text></g></g></g><g transform="translate(0,325.600006104)"><path d="M0.333333343,0.666666687 L188.333328247,0.666666687 L188.333328247,27.133333206 L0.333333343,27.133333206 Z" fill="#5b9bd5" fill-rule="evenodd" /><g clip-path="url(#clip047)"><g transform="translate(7.200000286,0.666666687)"><text><tspan x="0" y="18.572000504" font-family="Cambria" font-weight="bold" font-style="normal" font-size="14.666666985" fill="#000000">Customized</tspan><tspan x="78.840003967" y="18.572000504" font-family="Cambria" font-weight="bold" font-style="normal" font-size="14.666666985" fill="#000000"> </tspan><tspan x="82.069328308" y="18.572000504" font-family="Cambria" font-weight="bold" font-style="normal" font-size="14.666666985" fill="#000000">Cover</tspan><tspan x="121.164001465" y="18.572000504" font-family="Cambria" font-weight="bold" font-style="normal" font-size="14.666666985" fill="#000000"> </tspan><tspan x="124.393333435" y="18.572000504" font-family="Cambria" font-weight="bold" font-style="normal" font-size="14.666666985" fill="#000000">Letter</tspan></text></g></g><path d="M189,0.666666687 L313.066680908,0.666666687 L313.066680908,27.133333206 L189,27.133333206 Z" fill="#deeaf6" fill-rule="evenodd" /><g transform="translate(188.666671753,0)" clip-path="url(#clip048)"><g transform="translate(7.200000286,0.666666687)"><text><tspan x="43.335998535" y="18.572000504" font-family="Cambria" font-weight="normal" font-style="normal" font-size="14.666666985" fill="#000000">$50</tspan></text></g></g><path d="M313.733337402,0.666666687 L437.800018311,0.666666687 L437.800018311,27.133333206 L313.733337402,27.133333206 Z" fill="#deeaf6" fill-rule="evenodd" /><g transform="translate(313.399993896,0)" clip-path="url(#clip049)"><g transform="translate(7.200000286,0.666666687)"><text><tspan x="43.335998535" y="18.572000504" font-family="Cambria" font-weight="normal" font-style="normal" font-size="14.666666985" fill="#000000">$50</tspan></text></g></g><path d="M438.466674805,0.666666687 L575.799987793,0.666666687 L575.799987793,27.133333206 L438.466674805,27.133333206 Z" fill="#deeaf6" fill-rule="evenodd" /><g transform="translate(438.133331299,0)" clip-path="url(#clip050)"><g transform="translate(7.200000286,0.666666687)"><text><tspan x="34.342666626" y="18.572000504" font-family="Cambria" font-weight="normal" font-style="normal" font-size="14.666666985" fill="#000000">Included</tspan></text></g></g></g><g transform="translate(0,352.733306885)"><path d="M0.333333343,0.666666687 L188.333328247,0.666666687 L188.333328247,27.133333206 L0.333333343,27.133333206 Z" fill="#5b9bd5" fill-rule="evenodd" /><g clip-path="url(#clip051)"><g transform="translate(7.200000286,0.666666687)"><text><tspan x="0" y="18.572000504" font-family="Cambria" font-weight="bold" font-style="normal" font-size="14.666666985" fill="#000000">Rebuttal</tspan><tspan x="58" y="18.572000504" font-family="Cambria" font-weight="bold" font-style="normal" font-size="14.666666985" fill="#000000"> </tspan><tspan x="61.229335785" y="18.572000504" font-family="Cambria" font-weight="bold" font-style="normal" font-size="14.666666985" fill="#000000">Cover</tspan><tspan x="100.323997498" y="18.572000504" font-family="Cambria" font-weight="bold" font-style="normal" font-size="14.666666985" fill="#000000"> </tspan><tspan x="103.553337097" y="18.572000504" font-family="Cambria" font-weight="bold" font-style="normal" font-size="14.666666985" fill="#000000">Letter</tspan></text></g></g><path d="M189,0.666666687 L313.066680908,0.666666687 L313.066680908,27.133333206 L189,27.133333206 Z" fill="#bdd6ee" fill-rule="evenodd" /><g transform="translate(188.666671753,0)" clip-path="url(#clip052)"><g transform="translate(7.200000286,0.666666687)"><text><tspan x="43.335998535" y="18.572000504" font-family="Cambria" font-weight="normal" font-style="normal" font-size="14.666666985" fill="#000000">$50</tspan></text></g></g><path d="M313.733337402,0.666666687 L437.800018311,0.666666687 L437.800018311,27.133333206 L313.733337402,27.133333206 Z" fill="#bdd6ee" fill-rule="evenodd" /><g transform="translate(313.399993896,0)" clip-path="url(#clip053)"><g transform="translate(7.200000286,0.666666687)"><text><tspan x="43.335998535" y="18.572000504" font-family="Cambria" font-weight="normal" font-style="normal" font-size="14.666666985" fill="#000000">$50</tspan></text></g></g><path d="M438.466674805,0.666666687 L575.799987793,0.666666687 L575.799987793,27.133333206 L438.466674805,27.133333206 Z" fill="#bdd6ee" fill-rule="evenodd" /><g transform="translate(438.133331299,0)" clip-path="url(#clip054)"><g transform="translate(7.200000286,0.666666687)"><text><tspan x="34.342666626" y="18.572000504" font-family="Cambria" font-weight="normal" font-style="normal" font-size="14.666666985" fill="#000000">Included</tspan></text></g></g></g><path d="M0,0.666666687 L0,379.866699219 " stroke-width="0.666666687" stroke-miterlimit="13.333333015" stroke="#ffffff" fill="none" fill-rule="evenodd" /><path d="M188.666671753,27.133333206 L188.666671753,54.266666412 " stroke-width="0.666666687" stroke-miterlimit="13.333333015" stroke="#ffffff" fill="none" fill-rule="evenodd" /><path d="M188.666671753,54.933334351 L188.666671753,81.400001526 " stroke-width="0.666666687" stroke-miterlimit="13.333333015" stroke="#ffffff" fill="none" fill-rule="evenodd" /><path d="M188.666671753,82.066673279 L188.666671753,108.533332825 " stroke-width="0.666666687" stroke-miterlimit="13.333333015" stroke="#ffffff" fill="none" fill-rule="evenodd" /><path d="M188.666671753,109.200004578 L188.666671753,135.666671753 " stroke-width="0.666666687" stroke-miterlimit="13.333333015" stroke="#ffffff" fill="none" fill-rule="evenodd" /><path d="M188.666671753,136.333328247 L188.666671753,162.800003052 " stroke-width="0.666666687" stroke-miterlimit="13.333333015" stroke="#ffffff" fill="none" fill-rule="evenodd" /><path d="M188.666671753,163.466659546 L188.666671753,189.933334351 " stroke-width="0.666666687" stroke-miterlimit="13.333333015" stroke="#ffffff" fill="none" fill-rule="evenodd" /><path d="M188.666671753,190.599990845 L188.666671753,217.066665649 " stroke-width="0.666666687" stroke-miterlimit="13.333333015" stroke="#ffffff" fill="none" fill-rule="evenodd" /><path d="M188.666671753,217.733337402 L188.666671753,244.200012207 " stroke-width="0.666666687" stroke-miterlimit="13.333333015" stroke="#ffffff" fill="none" fill-rule="evenodd" /><path d="M188.666671753,244.86668396 L188.666671753,271.333343506 " stroke-width="0.666666687" stroke-miterlimit="13.333333015" stroke="#ffffff" fill="none" fill-rule="evenodd" /><path d="M188.666671753,272.000030518 L188.666671753,298.466705322 " stroke-width="0.666666687" stroke-miterlimit="13.333333015" stroke="#ffffff" fill="none" fill-rule="evenodd" /><path d="M188.666671753,299.133361816 L188.666671753,325.600036621 " stroke-width="0.666666687" stroke-miterlimit="13.333333015" stroke="#ffffff" fill="none" fill-rule="evenodd" /><path d="M188.666671753,326.266693115 L188.666671753,352.73336792 " stroke-width="0.666666687" stroke-miterlimit="13.333333015" stroke="#ffffff" fill="none" fill-rule="evenodd" /><path d="M188.666671753,353.400024414 L188.666671753,379.866699219 " stroke-width="0.666666687" stroke-miterlimit="13.333333015" stroke="#ffffff" fill="none" fill-rule="evenodd" /><path d="M576.133300781,0.666666687 L576.133300781,379.866699219 " stroke-width="0.666666687" stroke-miterlimit="13.333333015" stroke="#ffffff" fill="none" fill-rule="evenodd" /><path d="M313.399993896,27.800001144 L313.399993896,54.266666412 " stroke-width="0.666666687" stroke-miterlimit="13.333333015" stroke="#ffffff" fill="none" fill-rule="evenodd" /><path d="M313.399993896,54.933334351 L313.399993896,81.400001526 " stroke-width="0.666666687" stroke-miterlimit="13.333333015" stroke="#ffffff" fill="none" fill-rule="evenodd" /><path d="M313.399993896,82.066673279 L313.399993896,108.533332825 " stroke-width="0.666666687" stroke-miterlimit="13.333333015" stroke="#ffffff" fill="none" fill-rule="evenodd" /><path d="M313.399993896,109.200004578 L313.399993896,135.666671753 " stroke-width="0.666666687" stroke-miterlimit="13.333333015" stroke="#ffffff" fill="none" fill-rule="evenodd" /><path d="M313.399993896,136.333328247 L313.399993896,162.800003052 " stroke-width="0.666666687" stroke-miterlimit="13.333333015" stroke="#ffffff" fill="none" fill-rule="evenodd" /><path d="M313.399993896,163.466659546 L313.399993896,189.933334351 " stroke-width="0.666666687" stroke-miterlimit="13.333333015" stroke="#ffffff" fill="none" fill-rule="evenodd" /><path d="M313.399993896,190.599990845 L313.399993896,217.066665649 " stroke-width="0.666666687" stroke-miterlimit="13.333333015" stroke="#ffffff" fill="none" fill-rule="evenodd" /><path d="M313.399993896,217.733337402 L313.399993896,244.200012207 " stroke-width="0.666666687" stroke-miterlimit="13.333333015" stroke="#ffffff" fill="none" fill-rule="evenodd" /><path d="M313.399993896,244.86668396 L313.399993896,271.333343506 " stroke-width="0.666666687" stroke-miterlimit="13.333333015" stroke="#ffffff" fill="none" fill-rule="evenodd" /><path d="M313.399993896,272.000030518 L313.399993896,298.466705322 " stroke-width="0.666666687" stroke-miterlimit="13.333333015" stroke="#ffffff" fill="none" fill-rule="evenodd" /><path d="M313.399993896,299.133361816 L313.399993896,325.600036621 " stroke-width="0.666666687" stroke-miterlimit="13.333333015" stroke="#ffffff" fill="none" fill-rule="evenodd" /><path d="M313.399993896,326.266693115 L313.399993896,352.73336792 " stroke-width="0.666666687" stroke-miterlimit="13.333333015" stroke="#ffffff" fill="none" fill-rule="evenodd" /><path d="M313.399993896,353.400024414 L313.399993896,379.866699219 " stroke-width="0.666666687" stroke-miterlimit="13.333333015" stroke="#ffffff" fill="none" fill-rule="evenodd" /><path d="M438.133331299,27.800001144 L438.133331299,54.266666412 " stroke-width="0.666666687" stroke-miterlimit="13.333333015" stroke="#ffffff" fill="none" fill-rule="evenodd" /><path d="M438.133331299,54.933334351 L438.133331299,81.400001526 " stroke-width="0.666666687" stroke-miterlimit="13.333333015" stroke="#ffffff" fill="none" fill-rule="evenodd" /><path d="M438.133331299,82.066673279 L438.133331299,108.533332825 " stroke-width="0.666666687" stroke-miterlimit="13.333333015" stroke="#ffffff" fill="none" fill-rule="evenodd" /><path d="M438.133331299,109.200004578 L438.133331299,135.666671753 " stroke-width="0.666666687" stroke-miterlimit="13.333333015" stroke="#ffffff" fill="none" fill-rule="evenodd" /><path d="M438.133331299,136.333328247 L438.133331299,162.800003052 " stroke-width="0.666666687" stroke-miterlimit="13.333333015" stroke="#ffffff" fill="none" fill-rule="evenodd" /><path d="M438.133331299,163.466659546 L438.133331299,189.933334351 " stroke-width="0.666666687" stroke-miterlimit="13.333333015" stroke="#ffffff" fill="none" fill-rule="evenodd" /><path d="M438.133331299,190.599990845 L438.133331299,217.066665649 " stroke-width="0.666666687" stroke-miterlimit="13.333333015" stroke="#ffffff" fill="none" fill-rule="evenodd" /><path d="M438.133331299,217.733337402 L438.133331299,244.200012207 " stroke-width="0.666666687" stroke-miterlimit="13.333333015" stroke="#ffffff" fill="none" fill-rule="evenodd" /><path d="M438.133331299,244.86668396 L438.133331299,271.333343506 " stroke-width="0.666666687" stroke-miterlimit="13.333333015" stroke="#ffffff" fill="none" fill-rule="evenodd" /><path d="M438.133331299,272.000030518 L438.133331299,298.466705322 " stroke-width="0.666666687" stroke-miterlimit="13.333333015" stroke="#ffffff" fill="none" fill-rule="evenodd" /><path d="M438.133331299,299.133361816 L438.133331299,325.600036621 " stroke-width="0.666666687" stroke-miterlimit="13.333333015" stroke="#ffffff" fill="none" fill-rule="evenodd" /><path d="M438.133331299,326.266693115 L438.133331299,352.73336792 " stroke-width="0.666666687" stroke-miterlimit="13.333333015" stroke="#ffffff" fill="none" fill-rule="evenodd" /><path d="M438.133331299,353.400024414 L438.133331299,379.866699219 " stroke-width="0.666666687" stroke-miterlimit="13.333333015" stroke="#ffffff" fill="none" fill-rule="evenodd" /><path d="M-0.333333343,0.333333343 L576.46661377,0.333333343 " stroke-width="0.666666687" stroke-miterlimit="13.333333015" stroke="#ffffff" fill="none" fill-rule="evenodd" /><path d="M188.333328247,27.466667175 L575.799987793,27.466667175 " stroke-width="0.666666687" stroke-miterlimit="13.333333015" stroke="#ffffff" fill="none" fill-rule="evenodd" /><path d="M0.333333343,54.600002289 L575.799987793,54.600002289 " stroke-width="0.666666687" stroke-miterlimit="13.333333015" stroke="#ffffff" fill="none" fill-rule="evenodd" /><path d="M0.333333343,81.733337402 L575.799987793,81.733337402 " stroke-width="0.666666687" stroke-miterlimit="13.333333015" stroke="#ffffff" fill="none" fill-rule="evenodd" /><path d="M0.333333343,108.866668701 L575.799987793,108.866668701 " stroke-width="0.666666687" stroke-miterlimit="13.333333015" stroke="#ffffff" fill="none" fill-rule="evenodd" /><path d="M0.333333343,136 L575.799987793,136 " stroke-width="0.666666687" stroke-miterlimit="13.333333015" stroke="#ffffff" fill="none" fill-rule="evenodd" /><path d="M0.333333343,163.133331299 L575.799987793,163.133331299 " stroke-width="0.666666687" stroke-miterlimit="13.333333015" stroke="#ffffff" fill="none" fill-rule="evenodd" /><path d="M0.333333343,190.266662598 L575.799987793,190.266662598 " stroke-width="0.666666687" stroke-miterlimit="13.333333015" stroke="#ffffff" fill="none" fill-rule="evenodd" /><path d="M0.333333343,217.400009155 L575.799987793,217.400009155 " stroke-width="0.666666687" stroke-miterlimit="13.333333015" stroke="#ffffff" fill="none" fill-rule="evenodd" /><path d="M0.333333343,244.533340454 L575.799987793,244.533340454 " stroke-width="0.666666687" stroke-miterlimit="13.333333015" stroke="#ffffff" fill="none" fill-rule="evenodd" /><path d="M0.333333343,271.666687012 L575.799987793,271.666687012 " stroke-width="0.666666687" stroke-miterlimit="13.333333015" stroke="#ffffff" fill="none" fill-rule="evenodd" /><path d="M0.333333343,298.800018311 L575.799987793,298.800018311 " stroke-width="0.666666687" stroke-miterlimit="13.333333015" stroke="#ffffff" fill="none" fill-rule="evenodd" /><path d="M0.333333343,325.933380127 L575.799987793,325.933380127 " stroke-width="0.666666687" stroke-miterlimit="13.333333015" stroke="#ffffff" fill="none" fill-rule="evenodd" /><path d="M0.333333343,353.066680908 L575.799987793,353.066680908 " stroke-width="0.666666687" stroke-miterlimit="13.333333015" stroke="#ffffff" fill="none" fill-rule="evenodd" /><path d="M-0.333333343,380.200042725 L576.46661377,380.200042725 " stroke-width="0.666666687" stroke-miterlimit="13.333333015" stroke="#ffffff" fill="none" fill-rule="evenodd" /></g><g transform="translate(0,380.533325195)" /></g></g></g></svg>